# xmcd
# 
# Track frame offsets:
#     150
#     36281
#     67136
#     92207
#     113470
#     137460
#     172047
#     191045
# 
# Disc length: 3090
# 
# Revision: 0
# Processed by: cddbd v1.5.2PL0 Copyright (c) Steve Scherf et al.
# Submitted via: fre:ac v1.0.17
# 
DISCID=6e0c1008
DTITLE=Yes - Heaven and Earth
DYEAR=2014
DGENRE=Progressive Rock
TTITLE0=Believe Again
TTITLE1=The Game
TTITLE2=Step Beyond
TTITLE3=To Ascend
TTITLE4=In A World Of Our Own
TTITLE5=Light Of The Ages
TTITLE6=It Was All We Knew
TTITLE7=Subway Walls
EXTD=
EXTT0=
EXTT1=
EXTT2=
EXTT3=
EXTT4=
EXTT5=
EXTT6=
EXTT7=
PLAYORDER=
